<?xml version="1.0" encoding="UTF-8" standalone="no"?>
<svg
   xmlns:dc="http://purl.org/dc/elements/1.1/"
   xmlns:cc="http://creativecommons.org/ns#"
   xmlns:rdf="http://www.w3.org/1999/02/22-rdf-syntax-ns#"
   xmlns:svg="http://www.w3.org/2000/svg"
   xmlns="http://www.w3.org/2000/svg"
   xmlns:sodipodi="http://sodipodi.sourceforge.net/DTD/sodipodi-0.dtd"
   xmlns:inkscape="http://www.inkscape.org/namespaces/inkscape"
   width="480pt"
   height="480pt"
   viewBox="0 0 480 480"
   version="1.2"
   id="svg13"
   sodipodi:docname="logo-com-hr.svg"
   inkscape:version="0.92.4 (5da689c313, 2019-01-14)">
  <metadata
     id="metadata19">
    <rdf:RDF>
      <cc:Work
         rdf:about="">
        <dc:format>image/svg+xml</dc:format>
        <dc:type
           rdf:resource="http://purl.org/dc/dcmitype/StillImage" />
        <dc:title></dc:title>
      </cc:Work>
    </rdf:RDF>
  </metadata>
  <defs
     id="defs17" />
  <sodipodi:namedview
     pagecolor="#ffffff"
     bordercolor="#666666"
     borderopacity="1"
     objecttolerance="10"
     gridtolerance="10"
     guidetolerance="10"
     inkscape:pageopacity="0"
     inkscape:pageshadow="2"
     inkscape:window-width="1366"
     inkscape:window-height="741"
     id="namedview15"
     showgrid="false"
     inkscape:pagecheckerboard="true"
     inkscape:zoom="0.36875"
     inkscape:cx="423.95"
     inkscape:cy="320"
     inkscape:window-x="0"
     inkscape:window-y="0"
     inkscape:window-maximized="1"
     inkscape:current-layer="svg13" />
  <g
     id="surface740"
     transform="translate(-79.795,0.093)">
    <path
       style="fill:#000000;fill-opacity:1;fill-rule:nonzero;stroke:none"
       d="m 209.94,211.02 c -7.41,0 -13.58,2.58 -18.51,7.74 -4.93,5.15 -7.4,11.75 -7.4,19.79 0,8.27 2.44,14.97 7.31,20.09 4.87,5.13 11.04,7.69 18.51,7.69 7.47,0 13.69,-2.59 18.65,-7.77 4.95,-5.19 7.44,-11.86 7.44,-20.01 0,-8.16 -2.44,-14.78 -7.32,-19.88 -4.87,-5.1 -11.09,-7.65 -18.68,-7.65 m -0.4,-22.45 c 8.98,0 17.41,2.24 25.3,6.73 7.89,4.48 14.06,10.57 18.48,18.26 4.43,7.69 6.64,15.99 6.64,24.9 0,8.97 -2.23,17.36 -6.68,25.16 -4.46,7.81 -10.53,13.91 -18.22,18.31 -7.69,4.39 -16.17,6.59 -25.42,6.59 -13.64,0 -25.27,-4.84 -34.91,-14.54 -9.64,-9.7 -14.46,-21.48 -14.46,-35.35 0,-14.85 5.44,-27.23 16.34,-37.13 9.55,-8.62 20.53,-12.93 32.93,-12.93"
       id="path2"
       inkscape:connector-curvature="0" />
    <path
       style="fill:#000000;fill-opacity:1;fill-rule:nonzero;stroke:none"
       d="m 319.2,210.85 c -7.52,0 -13.72,2.52 -18.61,7.56 -4.89,5.04 -7.34,11.37 -7.34,19 0,7.93 2.5,14.42 7.51,19.48 5.01,5.07 11.3,7.61 18.87,7.61 7.4,0 13.5,-2.48 18.31,-7.43 4.81,-4.95 7.21,-11.45 7.21,-19.48 0,-7.93 -2.42,-14.36 -7.26,-19.31 -4.83,-4.96 -11.06,-7.43 -18.69,-7.43 m 24.73,-19.83 h 23.76 v 81.43 c 0,16.07 -3.23,27.9 -9.69,35.47 -8.69,10.26 -21.77,15.38 -39.24,15.38 -9.32,0 -17.15,-1.16 -23.5,-3.5 -6.35,-2.33 -11.71,-5.75 -16.08,-10.26 -4.37,-4.52 -7.61,-10 -9.7,-16.47 h 26.3 c 2.33,2.68 5.33,4.7 9,6.07 3.67,1.37 8.01,2.06 13.02,2.06 6.41,0 11.56,-0.99 15.47,-2.97 3.9,-1.99 6.65,-4.55 8.25,-7.69 1.6,-3.15 2.41,-8.57 2.41,-16.26 -4.2,4.2 -8.6,7.21 -13.2,9.05 -4.6,1.83 -9.82,2.75 -15.64,2.75 -12.76,0 -23.53,-4.6 -32.33,-13.81 -8.8,-9.2 -13.19,-20.85 -13.19,-34.95 0,-15.08 4.66,-27.2 13.98,-36.35 8.44,-8.26 18.52,-12.4 30.23,-12.4 5.47,0 10.65,1 15.51,3.01 4.86,2.01 9.75,5.32 14.64,9.92 z m 0,0"
       id="path4"
       inkscape:connector-curvature="0" />
    <path
       style="fill:#000000;fill-opacity:1;fill-rule:nonzero;stroke:none"
       d="m 428.79,211.02 c -7.41,0 -13.58,2.58 -18.51,7.74 -4.93,5.15 -7.39,11.75 -7.39,19.79 0,8.27 2.43,14.97 7.31,20.09 4.87,5.13 11.03,7.69 18.51,7.69 7.47,0 13.68,-2.59 18.64,-7.77 4.96,-5.19 7.44,-11.86 7.44,-20.01 0,-8.16 -2.44,-14.78 -7.31,-19.88 -4.87,-5.1 -11.1,-7.65 -18.69,-7.65 m -0.39,-22.45 c 8.97,0 17.4,2.24 25.3,6.73 7.89,4.48 14.05,10.57 18.48,18.26 4.42,7.69 6.64,15.99 6.64,24.9 0,8.97 -2.23,17.36 -6.69,25.16 -4.45,7.81 -10.53,13.91 -18.21,18.31 -7.69,4.39 -16.17,6.59 -25.43,6.59 -13.63,0 -25.27,-4.84 -34.91,-14.54 -9.64,-9.7 -14.46,-21.48 -14.46,-35.35 0,-14.85 5.45,-27.23 16.34,-37.13 9.56,-8.62 20.53,-12.93 32.94,-12.93"
       id="path6"
       inkscape:connector-curvature="0" />
    <path
       style="fill:#000000;fill-opacity:1;fill-rule:nonzero;stroke:none"
       d="m 146.67,239.91 c 0,-23.38 4.58,-46.05 13.6,-67.38 1.78,-4.21 3.72,-8.32 5.81,-12.35 l -21.35,-11.72 c -14.32,27.34 -22.43,58.45 -22.43,91.45 0,15.92 1.9,31.4 5.46,46.23 h 25.15 c -4.14,-14.95 -6.24,-30.43 -6.24,-46.23"
       id="path8"
       inkscape:connector-curvature="0" />
    <path
       style="fill:#b8babd;fill-opacity:1;fill-rule:nonzero;stroke:none"
       d="m 319.8,42.414 c -67.53,0 -127.12,33.899 -162.74,85.596 l 21.46,11.78 c 5.61,-7.9 11.91,-15.35 18.85,-22.3 15.92,-15.91 34.44,-28.396 55.05,-37.111 21.33,-9.024 43.99,-13.598 67.38,-13.598 23.38,0 46.06,4.574 67.38,13.598 20.61,8.715 39.13,21.201 55.04,37.111 15.91,15.91 28.39,34.42 37.11,55.04 9.03,21.33 13.6,44 13.6,67.38 0,23.38 -4.57,46.05 -13.6,67.38 -8.72,20.62 -21.2,39.13 -37.11,55.04 -15.91,15.91 -34.43,28.4 -55.04,37.12 -21.32,9.01 -44,13.59 -67.38,13.59 -23.39,0 -46.05,-4.58 -67.38,-13.59 -20.61,-8.72 -39.13,-21.21 -55.05,-37.12 -15.2,-15.21 -27.27,-32.8 -35.92,-52.33 h -26.33 c 28.27,74.47 100.29,127.4 184.68,127.4 109.07,0 197.49,-88.42 197.49,-197.49 0,-109.07 -88.42,-197.496 -197.49,-197.496"
       id="path10"
       inkscape:connector-curvature="0" />
  </g>
</svg>
